<svg width="32" height="32" viewBox="0 0 32 32" fill="none" xmlns="http://www.w3.org/2000/svg">
<rect width="32" height="32" rx="10" fill="#155DFC"/>
<path d="M12.5356 14.0166L12.1035 14.3022C11.8398 13.9116 11.4956 13.604 11.0708 13.3794C10.6509 13.1499 10.1943 13.0352 9.70117 13.0352C8.90039 13.0352 8.2168 13.3184 7.65039 13.8848C7.08398 14.4512 6.80078 15.1348 6.80078 15.9355C6.80078 16.7363 7.08398 17.4199 7.65039 17.9863C8.2168 18.5527 8.90039 18.8359 9.70117 18.8359C10.1943 18.8359 10.6509 18.7212 11.0708 18.4917C11.4956 18.2622 11.8398 17.9521 12.1035 17.5615L12.5283 17.8691C12.2158 18.3281 11.8105 18.6919 11.3125 18.9604C10.8145 19.229 10.2773 19.3633 9.70117 19.3633C9.2373 19.3633 8.79297 19.2729 8.36816 19.0923C7.94824 18.9116 7.58447 18.6675 7.27686 18.3599C6.96924 18.0522 6.7251 17.6885 6.54443 17.2686C6.36377 16.8438 6.27344 16.3994 6.27344 15.9355C6.27344 15.4717 6.36377 15.0298 6.54443 14.6099C6.7251 14.1851 6.96924 13.8188 7.27686 13.5112C7.58447 13.2036 7.94824 12.9595 8.36816 12.7788C8.79297 12.5981 9.2373 12.5078 9.70117 12.5078C10.2822 12.5078 10.8218 12.6445 11.3198 12.918C11.8179 13.1865 12.2231 13.5527 12.5356 14.0166ZM13.4072 13.416L12.9678 13.7017C12.6064 13.1743 12.1377 12.7568 11.5615 12.4492C10.9902 12.1367 10.3701 11.9805 9.70117 11.9805C8.9834 11.9805 8.32178 12.1587 7.71631 12.5151C7.11084 12.8667 6.62988 13.3452 6.27344 13.9507C5.92188 14.5562 5.74609 15.2178 5.74609 15.9355C5.74609 16.6533 5.92188 17.3149 6.27344 17.9204C6.62988 18.5259 7.11084 19.0068 7.71631 19.3633C8.32178 19.7148 8.9834 19.8906 9.70117 19.8906C10.3701 19.8906 10.9927 19.7344 11.5688 19.4219C12.145 19.1094 12.6138 18.687 12.9751 18.1548L13.4072 18.4551C12.9971 19.0605 12.4648 19.5391 11.8105 19.8906C11.1611 20.2422 10.458 20.418 9.70117 20.418C8.89062 20.418 8.14111 20.2178 7.45264 19.8174C6.76416 19.417 6.21973 18.8726 5.81934 18.1841C5.41895 17.4956 5.21875 16.7461 5.21875 15.9355C5.21875 15.125 5.41895 14.3755 5.81934 13.687C6.21973 12.9985 6.76416 12.4541 7.45264 12.0537C8.14111 11.6533 8.89062 11.4531 9.70117 11.4531C10.458 11.4531 11.1611 11.6289 11.8105 11.9805C12.4648 12.332 12.9971 12.8105 13.4072 13.416ZM14.2861 12.8301L13.8467 13.1157C13.3877 12.4419 12.792 11.9097 12.0596 11.519C11.332 11.1235 10.5459 10.9258 9.70117 10.9258C9.02246 10.9258 8.37305 11.0576 7.75293 11.3213C7.13281 11.585 6.59814 11.9414 6.14893 12.3906C5.70459 12.835 5.35059 13.3672 5.08691 13.9873C4.82324 14.6074 4.69141 15.2568 4.69141 15.9355C4.69141 16.6143 4.82324 17.2637 5.08691 17.8838C5.35059 18.5039 5.70459 19.0386 6.14893 19.4878C6.59814 19.9321 7.13281 20.2861 7.75293 20.5498C8.37305 20.8135 9.02246 20.9453 9.70117 20.9453C10.5508 20.9453 11.3394 20.7476 12.0669 20.3521C12.7944 19.9565 13.3877 19.4219 13.8467 18.748L14.2715 19.063C13.7637 19.8052 13.1069 20.3936 12.3013 20.8281C11.5005 21.2578 10.6338 21.4727 9.70117 21.4727C8.7002 21.4727 7.7749 21.2261 6.92529 20.7329C6.07568 20.2349 5.40186 19.561 4.90381 18.7114C4.41064 17.8618 4.16406 16.9365 4.16406 15.9355C4.16406 14.9346 4.41064 14.0093 4.90381 13.1597C5.40186 12.3101 6.07568 11.6387 6.92529 11.1455C7.7749 10.6475 8.7002 10.3984 9.70117 10.3984C10.6387 10.3984 11.5103 10.6182 12.3159 11.0576C13.1216 11.4922 13.7783 12.083 14.2861 12.8301ZM15.1504 12.2295L14.7109 12.5151C14.1543 11.6997 13.4341 11.0552 12.5503 10.5815C11.6714 10.1079 10.7217 9.87109 9.70117 9.87109C8.88086 9.87109 8.09473 10.0322 7.34277 10.3545C6.5957 10.6719 5.95117 11.1016 5.40918 11.6436C4.86719 12.1855 4.43506 12.8325 4.11279 13.5845C3.79541 14.3315 3.63672 15.1152 3.63672 15.9355C3.63672 16.7559 3.79541 17.542 4.11279 18.2939C4.43506 19.041 4.86719 19.6855 5.40918 20.2275C5.95117 20.7695 6.5957 21.2017 7.34277 21.5239C8.09473 21.8413 8.88086 22 9.70117 22C10.7217 22 11.6738 21.7607 12.5576 21.2822C13.4414 20.8037 14.1616 20.1567 14.7183 19.3413L15.1431 19.6636C14.5376 20.5425 13.7563 21.2407 12.7993 21.7583C11.8423 22.271 10.8096 22.5273 9.70117 22.5273C8.80762 22.5273 7.95312 22.3516 7.1377 22C6.32715 21.6533 5.62646 21.187 5.03564 20.6011C4.44971 20.0103 3.98096 19.3096 3.62939 18.499C3.28271 17.6836 3.10938 16.8291 3.10938 15.9355C3.10938 15.042 3.28271 14.1899 3.62939 13.3794C3.98096 12.564 4.44971 11.8633 5.03564 11.2773C5.62646 10.6865 6.32715 10.2178 7.1377 9.87109C7.95312 9.51953 8.80762 9.34375 9.70117 9.34375C10.8145 9.34375 11.8496 9.60254 12.8066 10.1201C13.7637 10.6377 14.5449 11.3408 15.1504 12.2295ZM24.8989 17.5762L25.4263 16.5801V22H24.8989V17.5762ZM25.9536 15.5547L26.481 14.5586V22H25.9536V15.5547ZM27.0083 13.5625L27.5356 12.5591V22H27.0083V13.5625ZM23.4707 17.3271L23.1704 16.7778L26.8032 9.87109H27.3965L23.4707 17.3271ZM22.8628 16.1772L22.5552 15.6206L25.6021 9.87109H26.2026L22.8628 16.1772ZM19.3325 16.6387L19.8599 17.6348V22H19.3325V16.6387ZM18.2778 14.6318L18.8052 15.6279V22H18.2778V14.6318ZM17.2231 12.625L17.7505 13.6284V22H17.2231V12.625ZM21.4858 18.8359H20.8926L16.6958 10.8745V22H16.1685V9.87109H16.7617L21.4858 18.8359ZM22.6797 18.8359H22.0791L17.3623 9.87109H17.9629L22.6797 18.8359ZM28.063 10.8745L23.8662 18.8359H23.2656L18.5562 9.87109H19.1494L23.5732 18.2793L27.9897 9.87109H28.5903V22H28.063V10.8745Z" fill="white"/>
</svg>
